<?xml version="1.0" standalone="no"?>
<!DOCTYPE svg PUBLIC "-//W3C//DTD SVG 20010904//EN"
 "http://www.w3.org/TR/2001/REC-SVG-20010904/DTD/svg10.dtd">
<svg version="1.0" xmlns="http://www.w3.org/2000/svg"
 width="800.000000pt" height="800.000000pt" viewBox="0 0 800.000000 800.000000"
 preserveAspectRatio="xMidYMid meet">
<metadata>
Created by potrace 1.14, written by Peter Selinger 2001-2017
</metadata>
<g transform="translate(0.000000,800.000000) scale(0.100000,-0.100000)"
fill="#000000" stroke="none">
<path d="M3865 7091 c-74 -36 -126 -88 -161 -165 -23 -52 -26 -67 -22 -140 7
-127 66 -219 178 -277 38 -20 60 -24 140 -24 80 0 102 4 140 24 61 32 116 86
148 146 24 44 27 61 27 145 0 84 -3 101 -27 145 -83 156 -269 220 -423 146z"/>
<path d="M230 5991 c-89 -27 -164 -94 -204 -181 -36 -78 -36 -182 0 -260 31
-68 84 -123 149 -158 44 -24 61 -27 145 -27 80 0 102 4 140 24 61 32 116 86
148 146 24 44 27 61 27 145 0 84 -3 101 -27 145 -58 111 -164 175 -283 174
-38 0 -81 -4 -95 -8z"/>
<path d="M7590 5991 c-89 -27 -164 -94 -204 -181 -20 -44 -26 -71 -26 -130 0
-125 63 -229 175 -288 44 -24 61 -27 145 -27 84 0 101 3 145 27 156 83 220
269 146 423 -56 117 -162 185 -286 184 -38 0 -81 -4 -95 -8z"/>
<path d="M3436 4675 l-558 -1154 -42 24 c-298 173 -2350 1334 -2353 1331 -4
-3 38 -182 191 -806 35 -146 223 -915 416 -1710 193 -795 353 -1453 356 -1462
5 -17 135 -18 2549 -18 2414 0 2544 1 2549 18 3 9 183 742 400 1627 218 886
437 1776 487 1978 50 203 89 371 87 373 -3 3 -2031 -1144 -2354 -1332 l-42
-23 -558 1154 c-308 635 -561 1155 -564 1155 -3 0 -256 -520 -564 -1155z"/>
</g>
</svg>
